<svg width="60" height="64" viewBox="0 0 60 64" fill="none" xmlns="http://www.w3.org/2000/svg">
<path d="M55.4666 0H4.26672V63.9999H55.4666V0Z" fill="#6D6A76" fill-opacity="0.501961"/>
<path d="M59.7332 4.26666H0V59.7333H59.7332V4.26666Z" fill="#6D6A76" fill-opacity="0.501961"/>
<path d="M51.2 0H8.53344V63.9999H51.2V0Z" fill="#655561"/>
<path d="M55.4666 4.26666H4.26672V59.7333H55.4666V4.26666Z" fill="#655561"/>
<path d="M59.7332 8.53333H0V55.4666H59.7332V8.53333Z" fill="#655561"/>
<path d="M51.2 4.26666H8.53344V59.7333H51.2V4.26666Z" fill="#7D929E"/>
<path d="M55.4666 8.53333H4.26672V55.4666H55.4666V8.53333Z" fill="#7D929E"/>
<path d="M51.2 4.26666H8.53344V51.1999H51.2V4.26666Z" fill="white"/>
<path d="M55.4666 8.53333H4.26672V46.9333H55.4666V8.53333Z" fill="white"/>
<path d="M42.6666 17.0667H38.3999V34.1333H42.6666V17.0667ZM21.3333 17.0667H17.0666V34.1333H21.3333V17.0667Z" fill="#655561"/>
</svg>
