<svg width="79" height="64" viewBox="0 0 79 64" fill="none" xmlns="http://www.w3.org/2000/svg">
<path d="M51.3532 21.7793C55.4759 21.7738 59.411 23.1266 62.5069 25.6388C64.0828 26.9228 65.3608 28.4424 66.2891 30.1266C67.2379 31.8411 67.8252 33.7308 68.0003 35.7245C68.1754 37.7561 67.9079 39.7702 67.2173 41.6712C66.5114 43.6097 65.3728 45.4243 63.8178 47.0085C60.6356 50.2505 56.1805 52.0891 51.36 52.0989C46.5326 52.1072 42.0776 50.2854 38.8953 47.0492C37.3404 45.472 36.1977 43.657 35.4932 41.7241C34.8025 39.8245 34.5336 37.8078 34.7115 35.7734C34.8797 33.7848 35.4724 31.8876 36.4173 30.1714C37.3455 28.4847 38.6239 26.9608 40.2022 25.6714C43.2955 23.1506 47.2343 21.7849 51.3532 21.7793Z" fill="white"/>
<path d="M41.0722 35.985C41.2195 33.3572 42.5063 31.0421 44.4476 29.4009C46.3514 27.789 48.9139 26.8037 51.7098 26.8037C54.503 26.8037 57.0655 27.789 58.9706 29.4009C60.9106 31.0421 62.1974 33.3572 62.3461 35.9822C62.4934 38.6823 61.4081 41.1906 59.5043 43.0499C57.5629 44.9412 54.8017 46.128 51.7098 46.128C48.6179 46.128 45.8511 44.9412 43.9112 43.0499C42.006 41.1906 40.9235 38.6823 41.0722 35.985Z" fill="#0E548B"/>
<path d="M24.1315 41.2947C24.1496 42.3231 24.4776 44.3213 24.9695 45.8819C26.0034 49.1851 27.7571 52.2409 30.1973 54.934C32.7014 57.7021 35.785 59.9255 39.3467 61.5042C43.0903 63.162 47.1467 64.0069 51.36 64C55.5665 63.9944 59.6228 63.1328 63.3665 61.4625C66.9281 59.8686 70.0089 57.6354 72.5089 54.8659C74.9477 52.1617 76.6986 49.1003 77.7353 45.7971C78.2564 44.1282 78.5858 42.4342 78.7178 40.7347C78.847 39.0602 78.7928 37.3829 78.5552 35.707C78.091 32.4414 76.9613 29.3772 75.2215 26.5841C73.6303 24.0174 71.5792 21.7704 69.1404 19.8791L69.146 19.8749L44.5342 0.977265C44.5119 0.960589 44.4939 0.942524 44.4702 0.927238C42.8555 -0.312315 40.1401 -0.308147 38.3642 0.934186C36.5688 2.19042 36.3631 4.26792 37.9612 5.57834L37.9542 5.58529L48.2195 13.9328L16.9319 13.9662C16.9166 13.9662 16.9013 13.9662 16.8902 13.9662C14.3041 13.969 11.818 15.6657 11.3261 17.8099C10.8202 19.9944 12.5767 21.8065 15.2657 21.8162L15.2615 21.8259L31.12 21.7954L2.8215 43.5168C2.78537 43.5432 2.74647 43.5709 2.71311 43.5973C0.0436268 45.6415 -0.819336 49.0405 0.862121 51.1917C2.56859 53.379 6.19693 53.3831 8.89421 51.2042L24.3386 38.5641C24.3386 38.5641 24.1135 40.2706 24.1315 41.2947ZM63.8181 47.0089C60.6359 50.2509 56.1807 52.0894 51.36 52.0991C46.5325 52.1075 42.0773 50.2857 38.895 47.0492C37.34 45.472 36.1977 43.6571 35.4932 41.7241C34.8025 39.8245 34.5343 37.8081 34.7122 35.7737C34.8804 33.7851 35.4723 31.8883 36.4173 30.1721C37.3456 28.4851 38.624 26.9606 40.2027 25.6711C43.296 23.1503 47.2342 21.7856 51.3531 21.7801C55.4761 21.7745 59.4116 23.1266 62.5077 25.6391C64.0835 26.9231 65.3606 28.442 66.2889 30.1262C67.238 31.841 67.8258 33.7309 68.0009 35.7251C68.176 37.7567 67.9078 39.7703 67.2172 41.6713C66.5112 43.6099 65.3731 45.4247 63.8181 47.0089Z" fill="#F4792B"/>
</svg>
