<svg width="43" height="64" viewBox="0 0 43 64" fill="none" xmlns="http://www.w3.org/2000/svg">
<path d="M0 53.3334C0 47.4424 4.78803 42.6667 10.6942 42.6667H21.3885V53.3334C21.3885 59.2244 16.6005 64.0001 10.6942 64.0001C4.78803 64.0001 0 59.2244 0 53.3334Z" fill="#24CB71"/>
<path d="M21.4771 0V21.3333H32.1713C38.0775 21.3333 42.8655 16.5577 42.8655 10.6667C42.8655 4.77568 38.0775 0 32.1713 0H21.4771Z" fill="#FF7237"/>
<path d="M32.0824 42.6666C37.9887 42.6666 42.7767 37.891 42.7767 31.9999C42.7767 26.1089 37.9887 21.3333 32.0824 21.3333C26.1762 21.3333 21.3882 26.1089 21.3882 31.9999C21.3882 37.891 26.1762 42.6666 32.0824 42.6666Z" fill="#00B6FF"/>
<path d="M0 10.6667C0 16.5577 4.78803 21.3333 10.6942 21.3333H21.3885V0H10.6942C4.78803 0 0 4.77568 0 10.6667Z" fill="#FF3737"/>
<path d="M0 31.9999C0 37.8909 4.78803 42.6666 10.6942 42.6666H21.3885V21.3333H10.6942C4.78803 21.3333 0 26.1089 0 31.9999Z" fill="#874FFF"/>
</svg>
