<svg width="64" height="64" viewBox="0 0 64 64" fill="none" xmlns="http://www.w3.org/2000/svg">
<path d="M11.8602 12C13.6835 10.8487 14.8945 8.81576 14.8945 6.5C14.8945 2.91015 11.9844 0 8.39453 0C4.80469 0 1.89453 2.91015 1.89453 6.5C1.89453 8.58132 2.87276 10.4342 4.39453 11.6238V64H12.3945V56H59.0949C60.9173 56 62.3945 54.5228 62.3945 52.7004C62.3945 52.2384 62.2977 51.782 62.1101 51.36L54.3945 34L62.1101 16.6399C62.2977 16.218 62.3945 15.7614 62.3945 15.2998C62.3945 13.4774 60.9173 12 59.0949 12H11.8602Z" fill="#418FDE"/>
</svg>
