<svg width="64" height="64" viewBox="0 0 64 64" fill="none" xmlns="http://www.w3.org/2000/svg">
<path d="M64 0H0V64H64V0Z" fill="url(#paint0_linear_1043_521)"/>
<path d="M33.2467 43.1263C29.5775 43.1263 26.0454 42.1343 22.9251 39.9742C20.7502 38.4692 18.2329 35.0708 18.2329 29.3095C18.2329 18.6211 23.6926 14.7201 34.6644 14.7201H54.4177L56.3198 20.8079H36.1699C28.9281 20.8079 24.6222 21.3726 24.6222 29.3095C24.6222 31.9311 25.3615 33.7969 26.8831 35.0126C29.4548 37.0673 34.4534 37.1548 37.5076 36.8604C37.5076 36.8604 38.7608 32.8307 38.9672 32.1764C39.2089 31.4099 39.1032 31.227 38.3489 31.227C37.2596 31.227 35.3014 31.227 33.2231 31.227C31.7667 31.227 30.3356 30.494 30.3356 28.7332C30.3356 27.0327 31.667 26.0459 33.492 26.0459C36.6518 26.0459 43.1598 26.0459 44.3779 26.0459C45.9748 26.0459 47.6044 26.2748 46.7729 28.8028L42.3697 42.1566C42.37 42.1569 38.7727 43.1263 33.2467 43.1263Z" fill="url(#paint1_linear_1043_521)"/>
<path d="M45.5788 45.3935C43.3596 46.9472 40.0724 47.8061 34.4944 47.8061C24.8807 47.8061 17.8447 44.3515 14.9758 37.6543C13.6195 34.4888 13.7501 30.901 13.7501 26.0488H7.36101C7.36101 31.1653 7.27299 35.1771 8.64179 38.8723C12.2311 48.5655 21.474 53.7735 33.8906 53.7735C45.9091 53.7735 50.8895 50.3463 54.1362 45.3935H45.5788Z" fill="url(#paint2_linear_1043_521)"/>
<defs>
<linearGradient id="paint0_linear_1043_521" x1="32" y1="0" x2="32" y2="64" gradientUnits="userSpaceOnUse">
<stop stop-color="#211746"/>
<stop offset="0.489583" stop-color="#331E60"/>
<stop offset="0.796875" stop-color="#3F2270"/>
<stop offset="1" stop-color="#402372"/>
</linearGradient>
<linearGradient id="paint1_linear_1043_521" x1="23.3289" y1="19.5017" x2="23.3289" y2="32.662" gradientUnits="userSpaceOnUse">
<stop stop-color="white"/>
<stop offset="1" stop-color="white"/>
</linearGradient>
<linearGradient id="paint2_linear_1043_521" x1="21.0498" y1="19.5019" x2="21.0498" y2="32.6623" gradientUnits="userSpaceOnUse">
<stop stop-color="white"/>
<stop offset="1" stop-color="white"/>
</linearGradient>
</defs>
</svg>
