<svg width="68" height="64" viewBox="0 0 68 64" fill="none" xmlns="http://www.w3.org/2000/svg">
<path d="M63.7155 43.6071C63.7155 43.6071 63.6166 43.0001 63.5587 43.0056L52.5441 44.0683C51.6677 44.153 50.987 44.8519 50.9255 45.7302L50.6229 50.0673L42.1016 50.6752L41.5219 46.7445C41.3929 45.8702 40.6294 45.2111 39.7456 45.2111H28.1204C27.237 45.2111 26.4735 45.8702 26.3444 46.7445L25.7645 50.6752L17.2431 50.0673L16.9405 45.7302C16.879 44.8516 16.1983 44.1527 15.3219 44.068L4.30182 43.0056C4.2449 43.0001 4.20319 43.6077 4.14627 43.6077L4.13135 45.9914L13.4643 47.4964L13.7699 51.8722C13.8317 52.758 14.5465 53.4744 15.433 53.538L27.1688 54.3751C27.2132 54.3782 27.257 54.38 27.3009 54.38C28.1828 54.38 28.9451 53.7206 29.0741 52.8463L29.6705 48.8018H38.1958L38.7922 52.8463C38.921 53.7203 39.6841 54.3797 40.5673 54.3797C40.6105 54.3797 40.6537 54.3782 40.696 54.3751L52.4333 53.538C53.3195 53.4744 54.0346 52.758 54.0964 51.8722L54.4017 47.4964L63.7307 45.9847L63.7155 43.6071Z" fill="white"/>
<path d="M4.14653 25.6337V40.098V41.9352V43.6071C4.1794 43.6074 4.21228 43.6086 4.24486 43.6116L15.2637 44.6741C15.8409 44.7298 16.2933 45.1943 16.3334 45.7727L16.6732 50.6368L26.285 51.3226L26.9471 46.8333C27.0329 46.2513 27.5322 45.8199 28.1209 45.8199H39.7462C40.3347 45.8199 40.8339 46.2513 40.9197 46.8333L41.5819 51.3226L51.194 50.6368L51.5334 45.7727C51.5739 45.1943 52.026 44.7301 52.6031 44.6741L63.6177 43.6116C63.6503 43.6086 63.6829 43.6074 63.7158 43.6071V42.1729L63.7203 42.1714V25.6337C65.2719 23.6804 66.7412 21.5258 67.8668 19.713C66.1466 16.7845 64.0387 14.1674 61.7857 11.7427C59.6962 12.7944 57.6666 13.9859 55.7496 15.2539C54.7904 14.3004 53.71 13.5205 52.6488 12.7052C51.6062 11.8678 50.4311 11.2538 49.3166 10.5384C49.6484 8.06738 49.8125 5.63475 49.8786 3.09587C47.003 1.64865 43.9366 0.689118 40.8348 -9.26549e-05C39.5964 2.08124 38.464 4.33517 37.4777 6.53857C36.3081 6.34314 35.133 6.27069 33.9564 6.25668V6.25485C33.9482 6.25485 33.9406 6.25668 33.9336 6.25668C33.9263 6.25668 33.9187 6.25485 33.9114 6.25485V6.25668C32.7326 6.27069 31.5585 6.34314 30.3886 6.53857C29.4029 4.33517 28.271 2.08124 27.0308 -9.26549e-05C23.9306 0.689118 20.8638 1.64865 17.9886 3.09587C18.0543 5.63475 18.2184 8.06738 18.5512 10.5384C17.4345 11.2538 16.261 11.8678 15.218 12.7052C14.1583 13.5205 13.0761 14.3004 12.1166 15.2539C10.1996 13.9859 8.17068 12.7944 6.08052 11.7427C3.82749 14.1674 1.7209 16.7845 0 19.713C1.35244 21.836 2.80311 23.9697 4.14653 25.6337Z" fill="#478CBF"/>
<path d="M53.8298 46.9398L53.4885 51.8297C53.4474 52.4191 52.9786 52.8882 52.3892 52.9305L40.6523 53.768C40.6236 53.7701 40.595 53.771 40.5667 53.771C39.9834 53.771 39.4802 53.343 39.3941 52.7573L38.721 48.1928H29.1442L28.4711 52.7573C28.3807 53.3716 27.8315 53.8133 27.213 53.768L15.476 52.9305C14.8866 52.8882 14.4178 52.4191 14.3767 51.8297L14.0355 46.9398L4.12744 45.9845C4.13201 47.0494 4.14571 48.2159 4.14571 48.4482C4.14571 58.9124 17.42 63.942 33.9124 63.9999H33.9325H33.9529C50.4452 63.942 63.7149 58.9124 63.7149 48.4482C63.7149 48.2117 63.7292 47.05 63.7341 45.9845L53.8298 46.9398Z" fill="#478CBF"/>
<path d="M24.9536 32.9298C24.9536 36.5987 21.9809 39.5708 18.3133 39.5708C14.6474 39.5708 11.6738 36.5987 11.6738 32.9298C11.6738 29.2634 14.6474 26.2928 18.3133 26.2928C21.9809 26.2928 24.9536 29.2634 24.9536 32.9298Z" fill="white"/>
<path d="M23.3565 33.3236C23.3565 35.7571 21.3841 37.7295 18.9487 37.7295C16.5146 37.7295 14.541 35.7571 14.541 33.3236C14.541 30.8901 16.5146 28.9159 18.9487 28.9159C21.3841 28.9159 23.3565 30.8901 23.3565 33.3236Z" fill="#414042"/>
<path d="M33.9328 40.1748C32.7522 40.1748 31.7954 39.3048 31.7954 38.2323V32.1192C31.7954 31.0476 32.7522 30.1767 33.9328 30.1767C35.1133 30.1767 36.0722 31.0476 36.0722 32.1192V38.2323C36.0722 39.3048 35.1133 40.1748 33.9328 40.1748Z" fill="white"/>
<path d="M42.9126 32.9298C42.9126 36.5987 45.8853 39.5708 49.5536 39.5708C53.2191 39.5708 56.1924 36.5987 56.1924 32.9298C56.1924 29.2634 53.2191 26.2928 49.5536 26.2928C45.8853 26.2928 42.9126 29.2634 42.9126 32.9298Z" fill="white"/>
<path d="M44.5112 33.3236C44.5112 35.7571 46.483 37.7295 48.9165 37.7295C51.3525 37.7295 53.3242 35.7571 53.3242 33.3236C53.3242 30.8901 51.3525 28.9159 48.9165 28.9159C46.483 28.9159 44.5112 30.8901 44.5112 33.3236Z" fill="#414042"/>
</svg>
