<svg width="64" height="64" viewBox="0 0 64 64" fill="none" xmlns="http://www.w3.org/2000/svg">
<path d="M52.5224 0H11.4777C5.13874 0 0 5.13874 0 11.4777V52.5224C0 58.8613 5.13874 64 11.4777 64H52.5224C58.8613 64 64 58.8613 64 52.5224V11.4777C64 5.13874 58.8613 0 52.5224 0Z" fill="#330000"/>
<path d="M21.6629 16.9883H31.0858L41.6537 46.4903H33.0232L31.5702 41.999H20.5177L19.0648 46.4903H10.7866L21.6629 16.9883ZM29.2804 34.9977L26.0661 25.0904L22.8516 34.9977H29.2804Z" fill="#FF9A00"/>
<path d="M42.9165 18.9257C42.9165 16.812 44.5458 15.447 47.0116 15.447C49.4332 15.447 50.9744 16.8561 50.9744 18.9257C50.9744 21.0392 49.4332 22.4924 47.0116 22.4924C44.4575 22.4924 42.9165 21.0833 42.9165 18.9257ZM43.1365 23.5051H50.8423V46.4902H43.1365V23.5051Z" fill="#FF9A00"/>
</svg>
