<svg width="64" height="64" viewBox="0 0 64 64" fill="none" xmlns="http://www.w3.org/2000/svg">
<path d="M52.5224 0H11.4777C5.13874 0 0 5.13874 0 11.4777V52.5224C0 58.8613 5.13874 64 11.4777 64H52.5224C58.8613 64 64 58.8613 64 52.5224V11.4777C64 5.13874 58.8613 0 52.5224 0Z" fill="#49021F"/>
<path d="M15.4302 16.9882H23.6203V46.4903H15.4302V16.9882Z" fill="#FF3366"/>
<path d="M26.4214 35.1297C26.4214 27.1158 32.4098 23.1088 38.6184 23.1088C39.4551 23.1088 40.3359 23.1969 40.8642 23.2848V16.0635H48.57V44.9932C46.7205 45.9178 43.0658 46.8865 39.103 46.8865C32.3217 46.8865 26.4214 43.0556 26.4214 35.1297ZM40.8642 40.4577V29.6697C40.3359 29.4936 39.6753 29.3615 38.7947 29.3615C36.3729 29.3615 34.1271 30.7705 34.1271 34.9977C34.1271 38.8725 36.1526 40.6338 38.8386 40.6338C39.4551 40.6338 40.2919 40.5898 40.8642 40.4577Z" fill="#FF3366"/>
</svg>
