<svg width="64" height="64" viewBox="0 0 64 64" fill="none" xmlns="http://www.w3.org/2000/svg">
<path d="M64 0H0V64H64V0Z" fill="#F7DF1E"/>
<path d="M16.8281 53.4832L21.7259 50.5191C22.6708 52.1944 23.5303 53.6118 25.5921 53.6118C27.5683 53.6118 28.8143 52.8387 28.8143 49.8317V29.3822H34.8286V49.9168C34.8286 56.1461 31.1772 58.9816 25.8498 58.9816C21.0385 58.9816 18.2458 56.4898 16.8281 53.4826" fill="black"/>
<path d="M38.0952 52.8387L42.9924 50.0033C44.2815 52.1085 45.9569 53.6551 48.9211 53.6551C51.4132 53.6551 53.0023 52.4091 53.0023 50.6906C53.0023 48.6285 51.3699 47.8981 48.6203 46.6956L47.1171 46.0508C42.7778 44.2038 39.8993 41.8839 39.8993 36.9864C39.8993 32.4755 43.3361 29.0385 48.7064 29.0385C52.5299 29.0385 55.2793 30.3704 57.2553 33.8503L52.5725 36.8574C51.5414 35.0103 50.4247 34.28 48.7064 34.28C46.945 34.28 45.8279 35.3969 45.8279 36.8574C45.8279 38.6618 46.945 39.3922 49.5224 40.5093L51.0259 41.1536C56.1383 43.3447 59.0167 45.5785 59.0167 50.6047C59.0167 56.018 54.7637 58.9821 49.05 58.9821C43.4651 58.9821 39.8564 56.3187 38.0952 52.8387Z" fill="black"/>
</svg>
