<svg width="56" height="64" viewBox="0 0 56 64" fill="none" xmlns="http://www.w3.org/2000/svg">
<path d="M27.72 62.6533L1.16006 47.3466L1.14673 16.68L27.6934 1.33334L54.2533 16.6533L54.2666 47.3199L27.72 62.6533Z" fill="#343536"/>
<path d="M27.7066 63.9999L0 47.9999V16L27.7066 0L55.4132 16V47.9999L27.7066 63.9999ZM1.89333 46.9199L27.7066 61.8132L53.5333 46.8933V17.08L27.7066 2.18666L1.88 17.1066L1.89333 46.9199Z" fill="#F9A031"/>
<path d="M27.72 59.6399L3.77334 45.8266L3.76001 18.1866L27.6933 4.35999L51.6266 18.1733L51.6399 45.8133L27.72 59.6399Z" fill="#F9A032"/>
<path d="M48.8398 46.4799C48.0396 46.7585 47.2131 46.9551 46.3732 47.0666C45.4132 47.0666 45.1465 47.0666 44.0265 46.9333C42.7163 44.2874 41.6712 41.5183 40.9065 38.6666C40.6411 38.2184 40.3083 37.8136 39.9198 37.4666C37.5299 36.3853 35.0765 35.4503 32.5732 34.6666C31.8317 33.5854 31.492 32.2787 31.6132 30.9733C31.8939 29.6527 32.453 28.4073 33.2532 27.3199C35.0392 28.4953 36.932 29.4997 38.9065 30.3199C41.2269 28.8319 43.4534 27.2021 45.5732 25.44C45.6798 25.16 47.3732 23.5733 47.6265 23.16C47.5652 22.6163 47.4072 22.088 47.1598 21.6C46.7588 21.3823 46.3337 21.2122 45.8932 21.0933C45.5732 21.3066 45.0798 22.1066 45.1865 21.4933C45.2932 20.88 44.5865 20.92 44.7198 21.12C44.8532 21.32 44.0132 22.8266 44.0132 22.8266C44.2764 23.427 44.4039 24.078 44.3865 24.7333C43.7998 25.6666 38.9065 27.3999 38.9065 27.3999L34.5732 24.4666C34.0314 24.0443 33.5191 23.5854 33.0398 23.0933C33.1226 22.7566 33.3016 22.4512 33.5549 22.2145C33.8082 21.9777 34.125 21.8198 34.4665 21.76C35.2065 22.0236 35.9319 22.3262 36.6398 22.6666L37.6398 22.3466L38.0132 21.2533L38.4398 21.16V20.3866H39.1598L39.4665 20.1066C39.4665 20.1066 38.7198 19.0933 38.8532 18.56C38.9042 18.396 39.0021 18.2506 39.1348 18.1416C39.2675 18.0327 39.4291 17.9649 39.5998 17.9466C39.6456 17.7441 39.6812 17.5394 39.7065 17.3333C39.8426 16.3218 39.6948 15.2924 39.2798 14.36C39.0044 13.8605 38.6229 13.4274 38.1622 13.0911C37.7016 12.7548 37.1728 12.5234 36.6132 12.4133C35.8538 12.2389 35.0615 12.2705 34.3184 12.5049C33.5753 12.7393 32.9084 13.168 32.3865 13.7466C32.0563 14.101 31.8076 14.5233 31.6578 14.984C31.5081 15.4447 31.461 15.9325 31.5198 16.4133C31.5198 16.4133 31.6398 17.5866 31.6265 19.2266C31.6265 20.1066 30.6798 20.6266 29.7065 21.1866C28.5439 21.0227 27.3911 20.7957 26.2532 20.5066C26.2532 20.5066 21.1999 18.6666 20.1865 18.84C19.8665 19 14.2132 24.4933 14.2132 24.4933L12.7199 26.12L13.2799 27.9999C13.2799 27.9999 14.3865 28.5333 14.6132 28.4399C14.8399 28.3466 15.3332 27.6399 15.3332 27.6399C15.3451 27.8831 15.4501 28.1123 15.6265 28.2799C15.7199 28.0666 16.3065 26.52 16.3065 26.52L15.9732 24.6266L20.8399 21.3333L25.1732 24C24.7367 25.8278 24.4425 27.6867 24.2932 29.5599C24.5199 30.6533 24.9599 33.8933 25.5199 35.8266C24.3599 37.3599 21.6532 41.2533 21.2932 42.0399C21.2932 42.0399 20.1199 40.3333 19.8932 39.9599C19.6665 39.5866 15.1865 38.2799 14.7599 37.3333C14.3332 36.3866 14.0265 35.5066 13.4265 35.7066C12.8265 35.9066 10.1465 37.4533 9.65321 37.6666C9.20724 38.1372 8.88236 38.7092 8.70654 39.3333C8.77321 39.5866 10.4799 38.6933 10.7465 38.5866C11.6627 38.4827 12.5859 38.4559 13.5065 38.5066C16.0567 40.5624 18.4132 42.8475 20.5465 45.3333C21.1102 45.5357 21.7172 45.5863 22.3065 45.4799C23.0399 44.7333 28.9732 39.6799 30.4532 39.0933C32.6798 38.2399 36.1865 39.9999 37.8132 40.0399C38.1694 40.903 38.4505 41.7952 38.6532 42.7066C39.9837 44.239 41.2257 45.846 42.3732 47.5199C42.7237 48.2112 42.9622 48.9538 43.0798 49.7199C43.2611 49.983 43.5308 50.1723 43.8398 50.2532C44.1865 50.3332 48.6798 47.9733 48.7332 47.5066C48.8798 47.2799 49.2798 46.2666 48.8398 46.4799Z" fill="#343536"/>
</svg>
