<svg width="57" height="64" viewBox="0 0 57 64" fill="none" xmlns="http://www.w3.org/2000/svg">
<path d="M28.1443 63.9999C27.2707 63.9999 26.4553 63.7646 25.6973 63.353L17.9475 58.7086C16.7822 58.0616 17.3648 57.8264 17.7139 57.7088C19.2873 57.1795 19.579 57.0619 21.2106 56.1209C21.3852 56.0033 21.6179 56.0621 21.7925 56.1797L27.737 59.7663C27.9697 59.884 28.2614 59.884 28.436 59.7663L51.6855 46.1843C51.919 46.0667 52.0354 45.8323 52.0354 45.5382V18.4331C52.0354 18.139 51.9191 17.9038 51.6863 17.7861L28.436 4.26296C28.2033 4.14534 27.9107 4.14534 27.737 4.26296L4.48666 17.7861C4.25231 17.9038 4.13594 18.1978 4.13594 18.4331V45.5382C4.13594 45.7727 4.25312 46.0667 4.48585 46.1843L10.8376 49.8886C14.2754 51.6529 16.4314 49.5945 16.4314 47.537V20.7847C16.4314 20.4318 16.7224 20.0789 17.1304 20.0789H20.1027C20.4518 20.0789 20.8017 20.373 20.8017 20.7847V47.537C20.8017 52.1822 18.2966 54.8867 13.9255 54.8867C12.5856 54.8867 11.5367 54.8867 8.56522 53.4164L2.44617 49.8886C1.70217 49.4526 1.08458 48.8267 0.655265 48.0735C0.22595 47.3203 -1.754e-05 46.4663 1.97209e-08 45.5971V18.4919C-7.7085e-05 17.6224 0.225945 16.7682 0.655414 16.0148C1.08488 15.2615 1.70271 14.6355 2.44698 14.1995L25.6965 0.617512C27.1543 -0.205837 29.135 -0.205837 30.5921 0.617512L53.8416 14.1995C54.586 14.6354 55.204 15.2613 55.6336 16.0147C56.0632 16.7681 56.2893 17.6223 56.2893 18.4919V45.5971C56.2892 46.4665 56.063 47.3206 55.6334 48.0738C55.2038 48.827 54.5859 49.4528 53.8416 49.8886L30.5921 63.4706C29.893 63.7646 29.0186 63.9999 28.1443 63.9999Z" fill="#5FA04E"/>
<path d="M35.3702 45.3614C25.1718 45.3614 23.0747 40.6573 23.0747 36.659C23.0747 36.3062 23.3656 35.9533 23.7737 35.9533H26.8042C27.1541 35.9533 27.445 36.1886 27.445 36.5414C27.9113 39.6576 29.2511 41.1866 35.4284 41.1866C40.3231 41.1866 42.4202 40.0692 42.4202 37.4236C42.4202 35.8953 41.8384 34.7771 34.2041 34.0134C27.8523 33.3665 23.8909 31.955 23.8909 26.8401C23.8909 22.0781 27.8531 19.256 34.4958 19.256C41.9547 19.256 45.6252 21.8428 46.0923 27.487C46.0923 27.6635 46.0333 27.8399 45.9169 28.0163C45.8006 28.1339 45.626 28.2516 45.4506 28.2516H42.362C42.2126 28.2465 42.0689 28.192 41.9531 28.0964C41.8373 28.0007 41.7558 27.8693 41.7212 27.7223C41.0222 24.4877 39.216 23.4299 34.4376 23.4299C29.0766 23.4299 28.4358 25.3118 28.4358 26.7225C28.4358 28.428 29.193 28.9573 36.4191 29.8974C43.5863 30.8384 46.9651 32.1911 46.9651 37.2471C46.9651 42.4217 42.7119 45.3614 35.3702 45.3614Z" fill="#5FA04E"/>
</svg>
