<svg width="64" height="64" viewBox="0 0 64 64" fill="none" xmlns="http://www.w3.org/2000/svg">
<path d="M52.5224 0H11.4777C5.13874 0 0 5.13874 0 11.4777V52.5224C0 58.8613 5.13874 64 11.4777 64H52.5224C58.8613 64 64 58.8613 64 52.5224V11.4777C64 5.13874 58.8613 0 52.5224 0Z" fill="#001E36"/>
<path d="M22.3482 16.9883C30.7145 16.9883 35.426 20.9072 35.426 27.4681C35.426 35.1298 29.0412 38.2122 23.0526 38.2122H19.0017V46.4905H10.8115V16.9883H22.3482ZM19.0017 23.9896V31.2109H22.6124C25.1223 31.2109 26.8836 30.1982 26.8836 27.6443C26.8836 25.3106 25.3865 23.9896 22.7886 23.9896H19.0017Z" fill="#31A8FF"/>
<path d="M37.091 45.0374L37.1352 38.2122C39.4689 39.7534 42.7273 40.7221 44.9731 40.7221C46.5141 40.7221 47.2187 40.2817 47.2187 39.4892C47.2187 38.6086 46.25 38.2563 44.4006 37.6838C40.8338 36.627 36.915 35.1739 36.915 30.5065C36.915 25.7508 40.8338 23.109 46.5141 23.109C49.2001 23.109 51.4019 23.5052 53.3393 24.3419L53.2952 30.8588C51.754 29.934 48.7159 29.0974 46.7343 29.0974C45.2812 29.0974 44.7089 29.5378 44.7089 30.1982C44.7089 30.9908 45.4133 31.211 47.527 31.8715C51.6221 33.1044 55.0566 34.4254 55.0566 39.225C55.0566 43.8043 51.3138 46.8867 45.4574 46.8867C42.375 46.8867 39.4689 46.3584 37.091 45.0374Z" fill="#31A8FF"/>
</svg>
