<svg width="64" height="64" viewBox="0 0 64 64" fill="none" xmlns="http://www.w3.org/2000/svg">
<path d="M52.5224 0H11.4777C5.13875 0 0 5.13875 0 11.4777V52.5224C0 58.8613 5.13875 64 11.4777 64H52.5224C58.8613 64 64 58.8613 64 52.5224V11.4777C64 5.13875 58.8613 0 52.5224 0Z" fill="#00005B"/>
<path d="M24.6801 16.9883C33.0464 16.9883 37.7581 20.9072 37.7581 27.468C37.7581 35.1299 31.373 38.2123 25.3846 38.2123H21.3336V46.4904H13.1436V16.9883H24.6801ZM21.3336 23.9895V31.211H24.9444C27.4544 31.211 29.2154 30.1982 29.2154 27.6443C29.2154 25.3105 27.7184 23.9895 25.1204 23.9895H21.3336Z" fill="#9999FF"/>
<path d="M49.1758 23.1089C50.9811 23.1089 52.4342 23.329 53.0947 23.5492V29.5377C52.5662 29.4057 51.5534 29.3174 50.7169 29.3174C49.0878 29.3174 48.163 29.4497 47.3262 29.7579V46.4905H39.6206V25.0463C42.3945 23.8134 45.1689 23.1089 49.1758 23.1089Z" fill="#9999FF"/>
</svg>
