<svg width="64" height="64" viewBox="0 0 64 64" fill="none" xmlns="http://www.w3.org/2000/svg">
<mask id="mask0_1084_467" style="mask-type:luminance" maskUnits="userSpaceOnUse" x="0" y="0" width="64" height="64">
<path d="M64 0H0V64H64V0Z" fill="white"/>
</mask>
<g mask="url(#mask0_1084_467)">
<path d="M63.8848 15.1573C63.8754 14.9389 63.8563 14.7253 63.8374 14.5069C63.8326 14.4547 63.8326 14.3978 63.823 14.3454C63.8088 14.2126 63.7899 14.0843 63.7709 13.9515C63.7518 13.8138 63.7376 13.681 63.7186 13.548C63.7043 13.4531 63.6854 13.3581 63.6664 13.2678C63.6379 13.1018 63.6094 12.9309 63.5762 12.7648C63.5477 12.6318 63.5144 12.5037 63.4859 12.3707C63.4574 12.2426 63.429 12.1192 63.4005 11.991C63.3672 11.8581 63.3245 11.7299 63.2864 11.597C63.2533 11.4736 63.22 11.3549 63.1819 11.2315C63.1392 11.0986 63.0917 10.9656 63.0443 10.8326C63.0062 10.7187 62.9683 10.6048 62.9302 10.4909C62.8685 10.3248 62.8021 10.1634 62.7403 10.0019C62.707 9.92128 62.6786 9.84528 62.6453 9.76464C62.5693 9.58896 62.4934 9.41808 62.4126 9.2472C62.3842 9.18544 62.3557 9.11904 62.3272 9.05728C62.2512 8.89584 62.1656 8.7392 62.085 8.58256C62.0469 8.51136 62.0138 8.44016 61.9757 8.36896C61.8808 8.19328 61.7763 8.01776 61.6765 7.84688C61.648 7.79936 61.6243 7.75184 61.5958 7.70448C61.4866 7.524 61.3726 7.34832 61.2539 7.1728C61.2301 7.13472 61.2064 7.0968 61.1826 7.05888C61.0402 6.84992 60.893 6.64112 60.741 6.43696C60.5986 6.24704 60.4512 6.05712 60.2994 5.872C60.2898 5.85776 60.2803 5.84352 60.2661 5.82928C57.331 2.27376 52.9002 0.0142409 47.9374 0.00944092V0L47.9232 0.00944092H47.9278C46.5507 0.00944092 45.2114 0.185119 43.9339 0.512639C43.1693 0.707359 42.4237 0.96368 41.7066 1.26272C41.4691 1.3624 41.2317 1.47152 40.9989 1.5808C36.283 3.84976 32.8637 8.36896 32.1086 13.7426H32.0992C31.7667 16.045 31.059 18.2238 30.0523 20.227H30.0856C26.5806 27.1766 19.3811 31.9474 11.0606 31.9474C7.34688 31.9474 3.86096 30.9981 0.821599 29.3318C0.465439 29.1371 0.0332788 29.3936 0.0332788 29.797V31.9474H0V63.8806H31.952V47.9117H31.9851V39.9272C31.9851 35.5171 35.5613 31.9427 39.9731 31.9427H47.9611C49.3288 31.9427 50.6539 31.767 51.9219 31.4395C52.6866 31.2402 53.4322 30.9885 54.1493 30.6894C54.3867 30.5898 54.6242 30.4806 54.8568 30.3714C59.7437 28.017 63.2485 23.2461 63.823 17.6114C63.8754 17.075 63.9038 16.5291 63.9038 15.9784C63.9038 15.7032 63.899 15.4278 63.8848 15.1573Z" fill="white"/>
</g>
</svg>
