<svg width="64" height="64" viewBox="0 0 64 64" fill="none" xmlns="http://www.w3.org/2000/svg">
<g clip-path="url(#clip0_1140_578)">
<path d="M19.6923 39.3846L49.2308 4.92308L64 0L59.0769 14.7692L24.6154 44.3077C29.5385 49.2308 29.5385 54.1538 34.4615 49.2308C34.4615 54.1538 39.3846 59.0769 34.4615 59.0769C34.1426 60.2561 33.5202 61.3312 32.6565 62.1949C31.7927 63.0587 30.7177 63.6811 29.5385 64C28.2074 58.0237 24.697 52.758 19.6923 49.2308C18.0513 48.9026 17.2308 49.7231 17.2308 51.6923C17.2308 53.6615 14.7692 55.7949 9.84615 58.0923C4.92308 60.3897 3.61026 59.0769 5.90769 54.1538C8.20513 49.2308 10.3385 46.7692 12.3077 46.7692C14.2769 46.7692 15.0974 45.9487 14.7692 44.3077C11.242 39.303 5.97629 35.7926 0 34.4615C0.318937 33.2823 0.941296 32.2073 1.80507 31.3435C2.66885 30.4798 3.74388 29.8574 4.92308 29.5385C4.92308 24.6154 9.84615 29.5385 14.7692 29.5385C9.84615 34.4615 14.7692 34.4615 19.6923 39.3846ZM49.2308 4.92308V14.7692H59.0769L50.2154 13.7846L49.2308 4.92308Z" fill="white"/>
</g>
<defs>
<clipPath id="clip0_1140_578">
<rect width="64" height="64" fill="white"/>
</clipPath>
</defs>
</svg>
