<svg width="65" height="64" viewBox="0 0 65 64" fill="none" xmlns="http://www.w3.org/2000/svg">
<mask id="mask0_1043_466" style="mask-type:alpha" maskUnits="userSpaceOnUse" x="0" y="0" width="65" height="64">
<path fill-rule="evenodd" clip-rule="evenodd" d="M45.6188 63.7264C46.632 64.1212 47.7874 64.0959 48.81 63.6038L62.0548 57.2306C63.4466 56.5609 64.3317 55.1524 64.3317 53.6071V10.3931C64.3317 8.84781 63.4466 7.43926 62.0549 6.76957L48.81 0.396207C47.4679 -0.249609 45.8972 -0.0914244 44.7192 0.764952C44.551 0.887285 44.3906 1.02387 44.2402 1.1744L18.8846 24.3068L7.84023 15.9232C6.81208 15.1428 5.37403 15.2067 4.41915 16.0753L0.87686 19.2976C-0.291134 20.36 -0.292473 22.1975 0.873965 23.2618L10.452 32L0.873965 40.7382C-0.292473 41.8024 -0.291134 43.64 0.87686 44.7024L4.41915 47.9247C5.37403 48.7933 6.81208 48.8572 7.84023 48.0767L18.8846 39.6932L44.2402 62.8255C44.6413 63.2269 45.1123 63.5291 45.6188 63.7264ZM48.2585 17.3959L29.0194 32L48.2585 46.604V17.3959Z" fill="white"/>
</mask>
<g mask="url(#mask0_1043_466)">
<path d="M62.0553 6.77919L48.8 0.397071C47.2657 -0.34166 45.4322 -0.0300473 44.2281 1.17406L0.835437 40.7379C-0.331715 41.8021 -0.330373 43.6396 0.838332 44.7021L4.38277 47.9243C5.33823 48.7929 6.77719 48.8569 7.80591 48.0765L60.0607 8.4349C61.8138 7.10497 64.3317 8.35532 64.3317 10.5558V10.4019C64.3317 8.8573 63.4469 7.44927 62.0553 6.77919Z" fill="#0065A9"/>
<g filter="url(#filter0_d_1043_466)">
<path d="M62.0553 57.2203L48.8 63.6024C47.2657 64.3413 45.4322 64.0295 44.2281 62.8254L0.835437 23.2616C-0.331715 22.1974 -0.330373 20.3598 0.838332 19.2974L4.38277 16.0752C5.33823 15.2066 6.77719 15.1426 7.80591 15.923L60.0607 55.5646C61.8138 56.8945 64.3317 55.6441 64.3317 53.4437V53.5976C64.3317 55.1422 63.4469 56.5502 62.0553 57.2203Z" fill="#007ACC"/>
</g>
<g filter="url(#filter1_d_1043_466)">
<path d="M48.8006 63.6038C47.2658 64.3421 45.4323 64.0298 44.228 62.8256C45.7118 64.3093 48.2488 63.2584 48.2488 61.1601V2.83984C48.2488 0.741512 45.7118 -0.309343 44.228 1.1744C45.4323 -0.0298171 47.2658 -0.341869 48.8006 0.396207L62.0535 6.76959C63.4461 7.43928 64.3317 8.84782 64.3317 10.3931V53.6071C64.3317 55.1524 63.4461 56.5609 62.0534 57.2306L48.8006 63.6038Z" fill="#1F9CF0"/>
</g>
<g style="mix-blend-mode:overlay" opacity="0.25">
<path fill-rule="evenodd" clip-rule="evenodd" d="M45.5797 63.727C46.5929 64.1216 47.7483 64.0964 48.771 63.6043L62.0158 57.2311C63.4075 56.5615 64.2926 55.1529 64.2926 53.6076V10.3936C64.2926 8.84827 63.4076 7.43973 62.0158 6.77004L48.771 0.396696C47.4289 -0.24912 45.8581 -0.0909357 44.6801 0.765435C44.5119 0.887775 44.3516 1.02436 44.2012 1.17489L18.8455 24.3073L7.80115 15.9237C6.77307 15.1433 5.33497 15.2073 4.38009 16.0758L0.837798 19.298C-0.330197 20.3605 -0.331535 22.1981 0.834904 23.2622L10.413 32.0005L0.834904 40.7388C-0.331535 41.8029 -0.330197 43.6404 0.837798 44.7029L4.38009 47.9251C5.33497 48.7937 6.77307 48.8577 7.80115 48.0773L18.8455 39.6936L44.2012 62.8261C44.6023 63.2274 45.0732 63.5297 45.5797 63.727ZM48.2194 17.3965L28.9804 32.0005L48.2194 46.6045V17.3965Z" fill="url(#paint0_linear_1043_466)"/>
</g>
</g>
<defs>
<filter id="filter0_d_1043_466" x="-8.3724" y="7.04471" width="81.0373" height="65.2879" filterUnits="userSpaceOnUse" color-interpolation-filters="sRGB">
<feFlood flood-opacity="0" result="BackgroundImageFix"/>
<feColorMatrix in="SourceAlpha" type="matrix" values="0 0 0 0 0 0 0 0 0 0 0 0 0 0 0 0 0 0 127 0" result="hardAlpha"/>
<feOffset/>
<feGaussianBlur stdDeviation="4.16667"/>
<feColorMatrix type="matrix" values="0 0 0 0 0 0 0 0 0 0 0 0 0 0 0 0 0 0 0.25 0"/>
<feBlend mode="overlay" in2="BackgroundImageFix" result="effect1_dropShadow_1043_466"/>
<feBlend mode="normal" in="SourceGraphic" in2="effect1_dropShadow_1043_466" result="shape"/>
</filter>
<filter id="filter1_d_1043_466" x="35.8947" y="-8.33334" width="36.7702" height="80.6668" filterUnits="userSpaceOnUse" color-interpolation-filters="sRGB">
<feFlood flood-opacity="0" result="BackgroundImageFix"/>
<feColorMatrix in="SourceAlpha" type="matrix" values="0 0 0 0 0 0 0 0 0 0 0 0 0 0 0 0 0 0 127 0" result="hardAlpha"/>
<feOffset/>
<feGaussianBlur stdDeviation="4.16667"/>
<feColorMatrix type="matrix" values="0 0 0 0 0 0 0 0 0 0 0 0 0 0 0 0 0 0 0.25 0"/>
<feBlend mode="overlay" in2="BackgroundImageFix" result="effect1_dropShadow_1043_466"/>
<feBlend mode="normal" in="SourceGraphic" in2="effect1_dropShadow_1043_466" result="shape"/>
</filter>
<linearGradient id="paint0_linear_1043_466" x1="32.1268" y1="0.000487916" x2="32.1268" y2="64.0005" gradientUnits="userSpaceOnUse">
<stop stop-color="white"/>
<stop offset="1" stop-color="white" stop-opacity="0"/>
</linearGradient>
</defs>
</svg>
