<svg xmlns="http://www.w3.org/2000/svg" width="74" height="74" viewBox="0 0 74 74" fill="none"><path d="M3 4L5.44828 74L69.4095 71.7312L74 6.89592L3 4Z" fill="black" fill-opacity="0.3"></path><mask id="path-2-inside-1_782_4" fill="white">
<path d="M0 0L2.44828 70L66.4095 67.7312L71 2.89592L0 0Z"></path>
</mask><path d="M0 0L2.44828 70L66.4095 67.7312L71 2.89592L0 0Z" fill="#477CD8"></path><path d="M0 0L2.44828 70L66.4095 67.7312L71 2.89592L0 0Z" fill="url(#paint0_linear_782_4)"></path><path d="M2.44828 70C2.44828 70 2.44828 70 2.44828 70C2.48497 65.4943 2.52167 60.9886 2.55837 56.4828C2.61617 49.3859 2.67397 42.289 2.73177 35.1921C2.82627 23.5895 3.42047 11.9694 3.01527 0.384255C3.00957 0.22122 3.00369 0.0581798 2.99763 -0.104843L-0.122239 2.99697C11.798 3.45698 23.7569 2.9707 35.6965 2.95722C47.464 2.94393 59.2525 2.41705 71 2.89592C70.9999 2.89758 70.9998 2.89925 70.9996 2.90092C69.4696 24.511 67.9395 46.1211 66.4095 67.7312C49.5879 68.3279 32.7664 68.9246 15.9448 69.5213C11.446 69.6808 6.94713 69.8404 2.44828 70C2.44828 70 2.44828 70 2.44828 70C6.94713 69.8404 11.446 69.6808 15.9448 69.5213C32.7664 68.9246 49.5879 68.3279 66.4095 67.7312C67.9395 46.1211 69.4696 24.511 70.9996 2.90092C70.9998 2.89925 70.9999 2.89758 71 2.89592C59.2525 2.41648 47.5461 0.931297 35.8187 -0.0402889C23.9199 -1.02608 12.0404 -2.48467 0.122239 -2.99697L-3.11757 -3.122L-2.99763 0.104843C-2.99228 0.267891 -2.98676 0.430944 -2.98106 0.593979C-2.57587 12.1791 -1.17128 23.7293 -0.266392 35.297C0.287096 42.3725 0.840584 49.448 1.39407 56.5236C1.74547 61.0157 2.09687 65.5079 2.44828 70ZM2.44828 70" fill="white" fill-opacity="0.3" mask="url(#path-2-inside-1_782_4)"></path><path d="M21.7666 49.4C19.1443 49.4 16.8332 48.8222 14.8332 47.6667C12.8332 46.4889 11.2666 44.8556 10.1332 42.7667C9.02211 40.6778 8.46655 38.2667 8.46655 35.5334C8.46655 32.7334 9.04433 30.2889 10.1999 28.2C11.3554 26.1111 12.9777 24.4889 15.0666 23.3334C17.1777 22.1778 19.6221 21.6 22.3999 21.6C24.6888 21.6 26.711 22 28.4666 22.8C30.2221 23.5778 31.6554 24.7 32.7666 26.1667C33.8777 27.6334 34.5777 29.3889 34.8666 31.4334H28.3332C28.111 30.0778 27.4777 29.0222 26.4332 28.2667C25.3888 27.5111 24.0443 27.1334 22.3999 27.1334C20.8443 27.1334 19.4888 27.4778 18.3332 28.1667C17.1777 28.8556 16.2888 29.8334 15.6666 31.1C15.0443 32.3667 14.7332 33.8667 14.7332 35.6C14.7332 37.3556 15.0554 38.8778 15.6999 40.1667C16.3443 41.4556 17.2554 42.4556 18.4332 43.1667C19.611 43.8556 20.9999 44.2 22.5999 44.2C23.7777 44.2 24.8221 44.0222 25.7332 43.6667C26.6666 43.2889 27.3999 42.7889 27.9332 42.1667C28.4666 41.5222 28.7332 40.8 28.7332 40V39.2H22.0999V34.4H30.4666C31.9332 34.4 33.0332 34.7556 33.7666 35.4667C34.4999 36.1556 34.8666 37.2 34.8666 38.6V49H29.1332V46.1334H28.9666C28.3221 47.2222 27.3999 48.0445 26.1999 48.6C24.9999 49.1334 23.5221 49.4 21.7666 49.4Z" fill="white"></path><path d="M41.9999 48.6C40.9999 48.6 40.1443 48.2556 39.4332 47.5667C38.7443 46.8556 38.3999 46 38.3999 45C38.3999 44 38.7443 43.1556 39.4332 42.4667C40.1443 41.7556 40.9999 41.4 41.9999 41.4C42.9999 41.4 43.8443 41.7556 44.5332 42.4667C45.2443 43.1556 45.5999 44 45.5999 45C45.5999 46 45.2443 46.8556 44.5332 47.5667C43.8443 48.2556 42.9999 48.6 41.9999 48.6ZM41.9999 36.6C40.9999 36.6 40.1443 36.2556 39.4332 35.5667C38.7443 34.8556 38.3999 34 38.3999 33C38.3999 32 38.7443 31.1556 39.4332 30.4667C40.1443 29.7556 40.9999 29.4 41.9999 29.4C42.9999 29.4 43.8443 29.7556 44.5332 30.4667C45.2443 31.1556 45.5999 32 45.5999 33C45.5999 34 45.2443 34.8556 44.5332 35.5667C43.8443 36.2556 42.9999 36.6 41.9999 36.6Z" fill="white"></path><path d="M61.0587 49.6H55.5254L45.5921 21.4H51.1254L61.0587 49.6Z" fill="white"></path><defs>
<linearGradient id="paint0_linear_782_4" x1="64.5903" y1="70" x2="20.3262" y2="0.557888" gradientUnits="userSpaceOnUse">
<stop stop-color="#37C6AE"></stop>
<stop offset="1" stop-color="#37C6AE" stop-opacity="0"></stop>
</linearGradient>
</defs></svg>